<svg xmlns="http://www.w3.org/2000/svg" width="32" height="21" version="1.2" viewBox="0 0 750 500"><style>.s0{fill:#ebebeb}.s1{fill:#dbdbdb}.s2{fill:#fff}.s4{fill:#263238}.s5{fill:#eb9481}.s6{fill:#a6a6a6}.s7{fill:#37474f}.s8{fill:#5b21b6}.s11{fill:#000}.s12{fill:#455a64}</style><g id="freepik--background-complete--inject-2"><path d="m667 150.3-9.6 46.3-6.2-6-10.5 7.5-8-10-17.9 13.1-15.4-25.7-17.1 10.1-6.8-9.4-21.7 12.2-6.6-14 15.3-73.8 81.7 16.9z" class="s0"/><path d="m644.2 117.5 22.8 32.8-28.4-5.9z" class="s1"/><path d="m655.3 205.9-14 68-110-22.7 13.9-67.5 6.5 14 21.8-12.2 6.8 9.3 17.1-10 15.3 25.7 18-13.1 8 9.9 10.5-7.4zM497.8 197.9l-112.1 6.9-8.9-143.9 83.3-5.2 30.5 25.7z" class="s0"/><path d="m460.1 55.7 30.5 25.7-28.9 1.8-1.7-27.5zM429 152.6l-.4-3.3c-1.2-6.7.7-14.2 6.5-22.1 5.3-7 8.2-12 7.8-17.7-.3-6.4-4.6-10.4-12.5-10.1q-1.7.1-3.3.4-1.7.4-3.3 1-1.5.6-3 1.4T418 104l-3.5-7.7c4-3.3 11-5.7 17.7-6 14.4-.8 21.4 7.7 22 17.3.5 8.5-4 14.9-9.6 22.4-5.2 6.8-6.8 12.4-6.1 18.8l.3 3.3zm-1.8 17.7c-.2-4.6 2.7-8.1 7.1-8.3 4.4-.3 7.6 2.8 7.9 7.5.2 4.4-2.5 7.9-7.1 8.2-4.5.2-7.7-3-7.9-7.4" class="s1"/><path fill-rule="evenodd" d="M146.9 131.6q-.2.3-.2.8-.1.4 0 .8 0 .4.2.7.2.4.4.7l.6.8q.2.3.5.7.2.4.5.6.3.3.7.5.3.2.7.3h.9l3.7-.4 1.3 12.4-3.8.3-.8.2q-.4.2-.7.4l-.6.6q-.2.3-.4.7-.1.2-.2.5 0 .2-.1.4l-.2.4-.2.4q-.2.4-.3.8t-.1.8l.2.8q.1.3.4.7l2.2 3.1-10.1 7.2-2.2-3.1-.6-.6q-.3-.2-.7-.4-.3-.1-.8-.2h-.8q-.2.1-.4.1h-.5q-.2.1-.4.1h-.5q-.4 0-.8.1-.4.2-.7.4-.4.2-.6.5-.3.3-.5.7l-1.5 3.5-11.3-5.1 1.6-3.5.2-.8v-.8l-.2-.8q-.2-.4-.5-.7t-.5-.7q-.3-.4-.5-.8-.2-.3-.6-.6-.3-.3-.6-.4-.4-.2-.8-.3t-.8 0l-3.8.3-1.2-12.3 3.8-.4q.4 0 .8-.2.3-.1.7-.4.3-.2.5-.5.3-.4.4-.8l.2-.4.2-.4.2-.4.2-.4q.2-.4.3-.8v-.8q0-.4-.1-.8-.2-.4-.4-.7l-2.2-3.1 10.1-7.2 2.2 3.1q.2.3.5.5.3.3.7.5l.8.2h.8q.2-.1.5-.1.2 0 .4-.1h1q.4 0 .8-.2.3-.1.7-.3l.6-.6q.3-.3.4-.6l1.6-3.5 11.3 5.1zm-7.7 5.3c-1.2-.8-2.4-1.2-3.7-1.4-1.4-.3-2.7-.2-4 .1s-2.5.8-3.6 1.6c-3.3 2.4-4.9 6.6-4 10.6s4.2 7 8.2 7.7c4.1.7 8.2-1.2 10.3-4.7 2.2-3.5 2-7.9-.4-11.2-.7-1.1-1.7-2-2.8-2.7M659.7 294l.4.4.4.4.6.2h2.4q.3-.1.5-.2.3-.2.5-.4t.3-.4l1.4-2.3 7.5 4.4-1.4 2.3q-.1.2-.2.5v.6q0 .2.1.5t.2.5q.4.6.7 1.1.1.3.3.5l.4.4q.3.1.5.2.3.1.6.1h2.7v8.7h-2.7q-.3 0-.5.1-.3 0-.6.2-.2.1-.4.3-.2.3-.3.5-.3.6-.7 1.1l-.2.6q-.1.2-.1.5v.6q.1.3.3.5l1.3 2.3-7.5 4.3-1.4-2.3q-.1-.2-.3-.4t-.5-.3q-.2-.2-.5-.2-.3-.1-.6-.1h-1.3q-.2 0-.5.1-.3 0-.5.2-.3.1-.5.3l-.4.4-1.3 2.3-7.5-4.3 1.3-2.3q.2-.2.2-.5.1-.3.1-.6t-.1-.6q-.1-.2-.3-.5-.3-.5-.6-1.1-.1-.2-.3-.5-.2-.2-.5-.3-.2-.2-.5-.3H647v-8.7h2.6q.3 0 .6-.1t.5-.2q.3-.2.5-.4.1-.2.3-.5.3-.5.6-1.1.2-.2.3-.5t.1-.6q0-.2-.1-.5l-.2-.6-1.3-2.3 7.5-4.3zm-.2 6.6q-1.3.5-2.3 1.5t-1.5 2.3q-.6 1.3-.6 2.7c0 2.9 1.8 5.5 4.4 6.6 2.7 1.1 5.7.5 7.8-1.5 2-2.1 2.6-5.1 1.5-7.8s-3.7-4.4-6.6-4.4q-1.4 0-2.7.6M173 93.3q.2.2.4.3.2.2.5.3t.5.1q.3.1.6 0h.6l.6-.1q.3 0 .6-.1t.5-.3q.2-.1.4-.3.2-.3.3-.5l1-2.5 8 3.3-1 2.5q-.1.3-.1.5-.1.3 0 .6 0 .3.1.5.1.3.3.5.4.4.8 1l.4.4q.2.2.5.3.2.1.5.2h.6l2.6-.4 1.1 8.7-2.6.3q-.3 0-.5.1-.3.2-.5.3-.2.2-.4.5-.2.2-.3.5 0 .1-.1.3 0 .1-.1.3-.1.1-.1.3-.1.1-.2.3t-.1.5q-.1.3-.1.6.1.2.2.5t.2.5l1.7 2.1-6.9 5.3-1.7-2.1q-.1-.3-.4-.4-.2-.2-.5-.3-.2-.1-.5-.1h-.6l-.6.1-.6.1q-.3 0-.6.1t-.5.3q-.2.1-.4.4-.2.2-.3.4l-1 2.5-8-3.3 1-2.5q.1-.3.1-.5.1-.3 0-.6 0-.3-.1-.5-.2-.3-.4-.5-.1-.1-.2-.3l-.2-.2q-.1-.1-.2-.3 0-.1-.1-.2-.2-.3-.4-.5-.2-.1-.5-.3-.3-.1-.6-.1-.3-.1-.5 0l-2.7.3-1.1-8.6 2.6-.3.6-.2q.2-.1.5-.3l.4-.4q.1-.2.2-.5.1-.2.1-.3.1-.2.1-.3.1-.2.2-.3 0-.2.1-.3.1-.3.2-.5v-.6q0-.3-.1-.6-.1-.2-.3-.4l-1.6-2.2 6.9-5.2zm.6 6.5q-1.2.7-2.1 1.8-.9 1.2-1.2 2.5-.4 1.4-.2 2.8c.4 2.8 2.4 5.2 5.2 5.9 2.8.8 5.7-.2 7.5-2.5 1.7-2.3 1.9-5.4.5-7.9s-4.2-3.9-7.1-3.5q-1.4.2-2.6.9" class="s0"/><path d="M119.8 316.8q.2-3.6.2-7.3.1-3.6 0-7.2 0-3.7-.2-7.3-.1-3.6-.4-7.2-.5-7.5-1.4-14.9-.8-7.5-1.9-14.9-1.2-7.4-2.6-14.7-1.4-7.4-3.2-14.7c-2.5-10.9-5.6-21.7-8.9-32.4-.1-.4-.6-.3-.5.1 10 37.9 18.3 77 17.7 116.4-.1 11-1.4 21.8-2.4 32.8 0 .3.4.4.5.1 2.1-9.4 2.7-19.2 3.1-28.8" class="s0"/><path d="M100.9 196.2S85.6 234.9 89 244c3.5 9.1 10.5 11 10.5 11s-9.3 13.3-2.8 25.8 21 11.9 22 26.1c0 0 .8-59.2-17.8-110.7" class="s0"/><path d="M117 282.5v-.2q-.7-9.9-2.1-19.8-1.3-9.8-3.1-19.5-1.9-9.8-4.3-19.4-2.3-9.7-5.3-19.2h-.1q4.5 17 8 34.2l-1.6-1.4q-.9-.6-1.8-1.1t-1.9-.9-2-.7c-.7-.2-.1.1 0 .1q1.1.4 2.1.9t2 1.2q.9.6 1.8 1.3.9.8 1.6 1.6.7 3.4 1.3 6.7c-3.4-3.8-8.1-5.7-12.8-7.5q-.1 0-.1.1l.1.1c4.9 2 9.8 4.5 13.1 8.8q1.8 9.6 3.1 19.3-.9-1-2-1.8-1-.8-2.2-1.5-1.1-.6-2.4-1.1-1.2-.5-2.5-.8c-.1 0-.2.1-.1.2q1.4.4 2.6.9 1.3.6 2.5 1.4 1.1.7 2.2 1.6 1 .9 1.9 2h.1l.8 6.8q-.7-.6-1.5-1.1-.7-.6-1.5-1-.8-.5-1.6-.9-.9-.5-1.8-.8v.1l1.8.8 1.6 1q.8.5 1.6 1.1.7.6 1.4 1.3c.5.5.1 0 .1 0q.4 3.3.7 6.5-1.2-1.5-2.7-2.9t-3.1-2.5q-1.7-1.2-3.4-2.2-1.8-.9-3.7-1.6-.1 0-.1.1h.1q1.9.9 3.6 1.9 1.8 1 3.4 2.3 1.6 1.2 3 2.6 1.5 1.5 2.8 3.1h.1q0 .1.1.1h.1q.5 4.9.8 10h.1z" class="s2"/><path d="M104.8 230.7q-1.1-.6-2.2-1.1t-2.2-.9q-1.2-.4-2.4-.6t-2.4-.2h-.1v.1h.1q1.2.2 2.3.5 1.2.3 2.3.7 1.2.3 2.3.8 1.1.4 2.2 1c.1 0 .2-.2.1-.3M106.6 271.7q-.8-.5-1.6-.9-.9-.3-1.7-.6-.9-.3-1.8-.5l-1.8-.4c-.1 0-.1.1 0 .2q.9.1 1.8.4.8.2 1.7.5t1.7.7q.8.3 1.6.7c.1.1.2-.1.1-.1" class="s2"/><path d="M159.9 244.7q-2.4 1.6-4.7 3.4-2.4 1.8-4.6 3.8-2.2 1.9-4.3 4-2.1 2-4.1 4.2-2 2.3-3.8 4.8-1.8 2.4-3.4 5.1-1.5 2.6-2.8 5.4t-2.3 5.7q-2.2 6-3.9 12.2-1.6 6.2-2.8 12.5-1.1 6.3-1.8 12.7-.6 6.4-.7 12.8-.1 3.5 0 7.1.2 3.5.5 7.1.3 3.5.9 7 .5 3.5 1.3 7 0 .1.1.2h.2q.1 0 .2-.1v-.2q-.9-6.1-1.4-12.3-.4-6.2-.4-12.4t.6-12.3q.5-6.2 1.5-12.3c2.6-16 6.7-33.5 16.9-46.5 5.5-7.1 12.4-12.6 19.3-18.4.3-.3-.1-.8-.5-.5" class="s0"/><path d="M122.9 319.8q1.4-2.3 2.9-4.4 1.5-2.2 3.1-4.2 1.6-2.1 3.3-4.1 1.7-1.9 3.6-3.8c7.6-7.6 14-13 15-18.1 1-5-7.6-8.7-7.6-8.7s10.5 1.9 13.4-2.6c2.9-4.4 4.3-30.1 4.3-30.1s-19.2 13.8-28.2 33c-8.9 19.2-9.8 42.9-9.8 42.9z" class="s0"/><path d="M154.3 250.4c-8.1 7.9-16.3 16.4-21.1 26.8q-.6 1.4-1.1 2.8-.6 1.3-1.1 2.7-.6 1.4-1.1 2.8-.4 1.4-.9 2.8-.4 1.1-.7 2.3v.1q-.9 2.9-1.6 5.9-.8 2.9-1.5 5.9-.7 2.9-1.3 5.9t-1.1 6s.1.1.1 0c.8-4 1.7-8 2.8-12.1h.1l1.2-.4 1.2-.4q.7-.2 1.3-.3t1.3-.1c.1 0 .1-.3 0-.2h-1.3q-.6.1-1.3.2-.6.1-1.2.3l-1.2.4c.9-3.7 1.9-7.3 3.1-10.9l2.8-.6 2.8-.4q1.4-.2 2.9-.3 1.4-.1 2.9-.2h-2.9q-1.4 0-2.8.1l-2.8.4q-1.4.2-2.7.5l.6-1.8q.9-.3 1.8-.5 1-.1 1.9-.3 1-.2 1.9-.3 1-.1 1.9-.2c.7-.1 0-.1 0-.1q-.9 0-1.8.1-1 0-1.9.2l-1.8.2q-1 .2-1.9.4c1-3.1 2.2-6.1 3.4-9.1q.4-.9.9-1.8l.8-1.8q.5-.9 1-1.7.5-.9 1-1.7.7-.2 1.5-.4.8-.1 1.5-.3l1.6-.2q.7-.1 1.5-.2c.5-.1 0-.1 0-.1q-.7-.1-1.4-.1-.8.1-1.5.1l-1.4.2-1.4.4q1.5-2.5 3.2-4.8c4.3-1 8.7-1.9 13.1-1v-.2c-4.2-1.1-8.4-.4-12.6.4l1.4-1.8q1-.3 2-.5 1-.3 2-.4 1-.2 2-.3 1 0 2-.1h-3.8q-.9.1-1.8.3-1 .2-1.9.4c3.6-4.4 7.5-8.6 11.4-12.7.3-.4.1-.5-.1-.3z" class="s2"/><path d="M154 267.9q-.5-.1-1-.1-.4 0-.9-.1h-1q-.4 0-.9.1c-.2 0-.2.2 0 .3 1.2 0 2.5-.1 3.8 0v-.2M140.2 292.8q-.7 0-1.5.1t-1.5.2q-.7.2-1.5.4-.7.2-1.4.5c-.5.2 0 .1 0 .1 2-.5 3.9-.7 5.9-1l.1-.1v-.1zM136.1 284.2h-.7q-.3 0-.6.1h-.6q-.3.1-.6.1h-.1v.1q0 .1.1.1h1.2q.3 0 .6-.1h.7l.1-.1v-.2z" class="s2"/><path d="M66.6 271.9q2.4.8 4.6 1.7 2.3.9 4.6 2 2.2 1 4.4 2.2t4.3 2.5q2.1 1.4 4.2 3 2 1.6 3.9 3.3 1.9 1.8 3.5 3.8 1.7 1.9 3.2 4 3.2 4.4 6 9 2.7 4.7 5.1 9.5t4.4 9.8 3.6 10.2q.9 2.9 1.6 5.8t1.2 5.8q.6 3 .9 5.9.4 3 .6 6 0 .1-.1.1 0 .1-.1.1t-.2-.1v-.1q-.7-5.2-1.8-10.3-1-5.1-2.5-10.1-1.4-5-3.3-9.9-1.8-4.9-4.1-9.6c-5.8-12.3-13.1-25.5-24.4-33.6-6.1-4.5-13-7.4-19.8-10.5-.4-.1-.1-.6.2-.5" class="s0"/><path d="M113.9 324.1q-1.6-1.5-3.3-2.9t-3.5-2.7l-3.6-2.4q-1.9-1.2-3.8-2.3c-7.9-4.4-14.4-7.3-16.4-11.2-1.9-3.8 4.2-8.8 4.2-8.8s-8.1 4-11.5 1c-3.3-2.9-10.4-23.3-10.4-23.3s18.7 6.6 30.4 20.1 17.9 32.5 17.9 32.5" class="s0"/><path d="M112.9 319.9c-9.3-17.6-21.8-33.5-38.9-43.9q1.7 1.1 3.3 2.2l3.2 2.4q1.6 1.2 3.1 2.5t2.9 2.7q-1.3-.1-2.6 0t-2.5.4q-1.3.3-2.6.7-1.2.4-2.3 1h-.1v.1h.1q1.2-.4 2.5-.8 1.2-.3 2.6-.5 1.3-.3 2.6-.4t2.6 0h.1q.9.8 1.8 1.7-.6.1-1.3.1l-1.4.2q-.6.1-1.3.2l-1.4.2c-.4.1 0 .1 0 .1q.8-.1 1.5-.2l1.4-.2h1.4q.7-.1 1.4-.1 1.2 1.2 2.3 2.5 1.2 1.2 2.3 2.4l2.2 2.6q1 1.2 2.1 2.5h-1q-.5-.1-.9 0-.5 0-1 .1t-.9.2H94v.1l.1.1q.5-.1 1-.1.5-.1 1-.1h1q.5.1 1 .1c.5.7 1 1.3 1.5 2q-1.4-.1-2.8-.1-1.5.1-2.9.2t-2.8.4q-1.4.2-2.8.6c-.1 0 0 .1 0 .1q1.4-.3 2.9-.5 1.4-.2 2.9-.3l3-.2q1.4 0 2.9.1.7 1 1.4 1.9h-1.7q-.9.1-1.7.2-.9.1-1.7.2-.8.2-1.7.4v.1q.9-.2 1.8-.3.8-.1 1.7-.2.9 0 1.8-.1.9 0 1.7.1 3 4.2 5.8 8.5-.3-.1-.7-.1-.4-.1-.8 0-.4 0-.7.1-.4 0-.8.1v.1c.3-.1.6-.1.8-.1h.8q.4 0 .8.1.4 0 .8.1 2.5 3.9 4.9 7.9c.2.3.6.1.4-.1" class="s2"/><path d="M98.4 305.3H97q-.7 0-1.4.1t-1.3.2l-1.4.4c-.4.1 0 .1 0 .1l1.4-.2q.7-.1 1.3-.2.7-.1 1.4-.1.7-.1 1.3-.1c.2 0 .2-.2.1-.2M82.1 283.9h-1.2999999999999998q-.3 0-.6.1-.3 0-.6.1c-.1 0-.1.1 0 .1.8-.1 1.6-.1 2.4-.1h.1v-.2" class="s2"/><path d="M138 382.2H95.8l6-44.1 1.6-11.3h27.1l1.5 11.3z" class="s1"/><path d="M132 338.1h-30.2l1.6-11.3h27.1z" style="fill:#c7c7c7"/><path d="M99.5 322.8h34.8v9.6H99.5z" class="s1"/></g><path id="freepik--Floor--inject-2" d="m69 382.2 76-.3h76l152-.2 152 .2h76l76 .3-76 .2-76 .1-152 .2-152-.2-76-.1z" class="s4"/><path id="freepik--Shadow--inject-2" d="M375 456.7c-158.6 0-286.7-14-286.7-31.4s128.1-31.4 286.7-31.4 286.7 14 286.7 31.4-128.1 31.4-286.7 31.4" class="s0"/><g id="freepik--Character--inject-2"><path d="M308.3 420.1c-2.4.8-69.2 1-71.8-.6-1-.6-1.5-10.3-2-22.1q-.1-3.8-.2-7.8l-5.3-35.7 44.7-.3 4.2 35.7-.2 7.8s25.6 11.4 28.2 13.4c2.7 2.1 4.7 8.8 2.3 9.6z" class="s5"/><path d="M308.3 420.1c-2.4.8-69.2 1-71.8-.6-1.1-.7-1.8-14.9-2.1-29.9l43.4-.3-.1 7.8s25.6 11.4 28.2 13.4c2.6 2.1 4.7 8.8 2.3 9.6z" class="s2"/><path d="M308.3 420.1c-2.4.8-69.2 1-71.8-.6-1-.6-1.5-10.3-2-22.1l43.1-.3s25.6 11.4 28.3 13.4c2.6 2.1 4.7 8.8 2.3 9.6z" class="s6"/><path d="M307.3 417.4c-11.2-.2-56.4-.1-67.5.5-.1 0-.1.1 0 .1 11.1.5 56.3 0 67.5-.4.2 0 .2-.2 0-.2M301.6 408.1q-.9 0-1.9.2-.9.2-1.7.5-.9.4-1.7.9t-1.4 1.2q-.6.6-1 1.3-.5.7-.8 1.5-.3.7-.5 1.6-.2.8-.2 1.6c0 .1.1.1.1 0q.3-1.6 1.1-3.1t2-2.7q1.2-1.1 2.8-1.9 1.5-.7 3.1-.9h.1v-.1zM282 398.2c-4.5 0-9.7 1.6-12.4 5.3-.2.1.1.3.2.2q1.4-.8 3-1.5 1.5-.7 3-1.3t3.1-1.1q1.6-.6 3.2-1 .1 0 .1-.1.1-.1.1-.2t-.1-.2-.2-.1M285.5 399.6c-4.5 0-9.7 1.5-12.5 5.2-.1.1.1.3.3.2q1.4-.8 2.9-1.5t3.1-1.3q1.5-.6 3.1-1.1l3.2-1q.1 0 .1-.1.1-.1.1-.2-.1-.1-.1-.2zM288.9 400.9c-4.4 0-9.6 1.6-12.4 5.2-.1.2.1.3.2.3q1.5-.8 3-1.5t3-1.3l3.2-1.2q1.5-.5 3.1-.9l.2-.2v-.2q0-.1-.1-.1-.1-.1-.2-.1M292.4 402.2c-4.5 0-9.7 1.6-12.4 5.3-.1.1.1.3.2.2q1.5-.8 3-1.5t3-1.3 3.1-1.1q1.6-.6 3.2-1 .1 0 .2-.1v-.2q0-.1-.1-.2t-.2-.1M242.6 407.3c-5 0-5 7.8 0 7.8 5-.1 5.1-7.9 0-7.8" class="s4"/><path fill-rule="evenodd" d="M286.5 392.8c-2.4 3.2-6.1 5.1-9.3 7.3q-.1.1-.2.1h-.3l-.2-.2q0-.1-.1-.2l-.1-.1q.1-1.6.4-3.1t.8-2.9q.5-1.5 1.2-2.9.7-1.3 1.6-2.6c1.4-2 4.2-3.8 6.5-2 2.2 1.8 1.1 4.8-.3 6.6m.2-3.7c-.5-4.9-4.8-1.1-5.8.4q-.3.4-.5.7l-.4.8q-.2.3-.4.7l-.4.8c-1 2.2-1.7 4.4-2.5 6.7 1.5-1.2 3.1-2.3 4.7-3.4 1.8-1.4 5.5-4 5.3-6.7" class="s4"/><path fill-rule="evenodd" d="M260.4 396.9c.3-3 3.6-3.6 6-3.2q1.5.3 2.9.9 1.5.5 2.8 1.2 1.4.6 2.7 1.5t2.4 1.9h.1v.1l-.1.1q.1.1.1.2v.3l-.2.2q-.1.1-.2.1c-3.8.6-7.9 1.7-11.8 1.2-2.2-.4-5.1-1.8-4.7-4.5m10.5 3.1c1.9-.3 3.8-.6 5.6-.8q-.7-.5-1.5-.9t-1.6-.7l-1.6-.8q-.8-.3-1.7-.7-.4-.1-.8-.3-.4-.1-.8-.3l-.8-.2-.8-.2c-1.8-.4-7.5-.1-4.5 3.7 1.7 2.1 6.2 1.5 8.5 1.2" class="s4"/><path d="M163.3 189.2s51.9 88.2 53.3 94.4c2.1 9.6 13.4 103.6 13.4 103.6l54-1s-9.3-82.9-18.1-110.2c-6.3-19.7-52.1-84.9-52.1-84.9z" class="s7"/><path d="M279.1 377.9c-7.8 0-35.2-.3-45.6.6v.2c3.6.5 37.8-.3 45.6-.6q0 .1.1 0v-.1zM172.2 197.3c3.4 5.3 7 10.6 10.4 15.8 3.5 5.3 7 10.6 10.4 15.9q10.3 16 20 32.2 1.2 1.9 2.3 3.8t2.1 3.9 1.9 4q1 2 1.8 4.1t1.4 4.2q.7 2 1.3 4.2l1 4.2q.5 2.2.8 4.3c1.1 5.8 1.8 11.7 2.5 17.5q1 9.4 2.1 18.7l4.2 38.2q.3 2.4.5 4.7c0 .2-.4.3-.4 0-1.6-12.6-2.9-25.3-4.3-38q-1.1-9.5-2.2-18.9c-.7-5.9-1.3-11.8-2.2-17.6q-.3-2.2-.7-4.3t-.9-4.3l-1-4.2-1.2-4.2q-.7-2.2-1.5-4.3l-1.8-4.2q-.9-2-2-4-1-2-2.2-4c-6.2-10.8-12.8-21.4-19.5-32-6.6-10.6-13.4-21.3-20.4-31.8l-2.6-3.8c-.1-.1.1-.2.2-.1" class="s4"/><path d="M180.3 425.3c-2.4-.2-66-25.9-67.7-28.3q-.1-.1-.1-.2v-.3c0-2.2 4.4-9.8 8-19.9.3-.6 1.9-3.6 4.2-7.6 6.3-11 17.3-29.9 17.3-29.9l41.5 16.5-19.9 29.7-3 7.2s19.4 20.2 21.1 23c1.6 2.9 1.1 9.9-1.4 9.8" class="s5"/><path d="M180.3 425.3c-2.4-.2-66-25.9-67.7-28.3q-.1-.1-.1-.2v-.3c0-2.2 4.4-9.8 8-19.9.3-.6 1.9-3.6 4.2-7.6l39 16.3-3.1 7.2s19.5 20.2 21.1 23c1.7 2.9 1.1 9.9-1.4 9.8" class="s2"/><path d="M180.3 425.3c-2.4-.2-66-25.9-67.7-28.3-.7-1 2.1-9.6 8-20.4l40 15.9s19.5 20.2 21.1 23c1.6 2.9 1.1 9.9-1.4 9.8" class="s6"/><path d="M180.4 422.4c-10.3-4.4-52.2-21.2-62.7-24.8-.1 0-.1 0 0 .1 10.1 4.6 52.2 21.1 62.7 24.9.2.1.2-.1 0-.1zM178.6 411.7q-.8-.4-1.8-.5-.9-.2-1.8-.2t-1.8.2q-1 .1-1.8.5t-1.5.8q-.7.5-1.2 1.1-.6.6-1.1 1.3l-.8 1.4c0 .1.1.2.2.1q.8-1.4 2.1-2.5t2.9-1.7q1.6-.7 3.3-.8 1.6 0 3.3.4zM164.2 395.2c-4.1-1.8-9.6-2.2-13.5.2-.2 0 0 .3.1.3q1.7-.2 3.3-.3 1.7-.1 3.3-.1 1.7 0 3.4.1 1.6.1 3.3.3h.2q0-.1.1-.2 0-.1-.1-.2 0-.1-.1-.1M166.9 397.7c-4.1-1.7-9.6-2.2-13.5.2-.2.1 0 .3.1.3q1.7-.2 3.3-.3h3.4q1.6 0 3.3.1 1.6.1 3.3.3.1 0 .2-.1 0-.1.1-.2 0-.1-.1-.1 0-.1-.1-.2M169.6 400.3c-4.1-1.8-9.5-2.2-13.5.1-.1.1 0 .3.1.3q1.7-.1 3.3-.2 1.7-.1 3.4-.1 1.6 0 3.3.1 1.6.1 3.3.3h.2q.1-.1.1-.2v-.2q-.1-.1-.2-.1M172.3 402.8c-4.1-1.7-9.5-2.2-13.5.2-.1.1 0 .3.2.3q1.6-.2 3.3-.3 1.6-.1 3.3-.1 1.6.1 3.3.2 1.6.1 3.3.2.1.1.2 0t.1-.2v-.2q-.1-.1-.2-.1M124.3 388.8c-4.7-1.9-7.6 5.4-2.9 7.2 4.7 1.9 7.6-5.4 2.9-7.2" class="s4"/><path fill-rule="evenodd" d="M170.4 391.8c-3.4 2-7.6 2.5-11.3 3.4-.4 0-.7-.4-.7-.7v-.2q.7-1.3 1.5-2.6.9-1.3 1.9-2.4 1-1.2 2.1-2.2 1.2-1 2.5-1.9c2-1.3 5.3-1.9 6.7.7 1.4 2.4-.8 4.8-2.7 5.9m1.5-3.3c1.4-4.7-4-2.9-5.5-1.9q-.3.3-.7.5-.3.3-.7.6-.3.3-.6.5l-.6.6-1.3 1.3q-.6.6-1.2 1.3-.6.6-1.2 1.3l-1.2 1.4c1.9-.6 3.7-1 5.6-1.4 2.2-.6 6.7-1.6 7.4-4.2" class="s4"/><path fill-rule="evenodd" d="M144.6 385.8c1.5-2.6 4.8-2 6.8-.7q1.3.9 2.4 1.9 1.2 1 2.2 2.2 1 1.1 1.9 2.4.8 1.3 1.5 2.7v.1l-.1.1c.1.3-.2.7-.6.6-3.8-.9-7.9-1.4-11.3-3.4-2-1.1-4.2-3.3-2.8-5.9m8.6 6.8c1.9.5 3.7.9 5.6 1.4l-1.2-1.4q-.6-.6-1.2-1.3-.6-.6-1.2-1.3l-1.2-1.2q-.3-.3-.7-.6l-.6-.6q-.3-.3-.7-.5-.3-.3-.7-.5c-1.4-1.1-6.9-2.9-5.5 1.8.8 2.6 5.2 3.6 7.4 4.2" class="s4"/><path d="m166.9 383.7-46.5-18.8s57.6-84.8 58-91.1c.4-5.5-24.9-54.2-25.9-68.3-1.1-15.3 6.3-27.2 14.4-34.5l47.9 20.4s-5 8.1-13 12.6c0 0 24.6 56.2 23.2 73.5-1.4 17.2-58.1 106.2-58.1 106.2" class="s7"/><path d="M168.9 374.8c-6.7-2.9-4.7-2.1-11.5-5-3.3-1.4-25-10.4-28.3-11.1-.1 0-.1.1-.1.1 2.9 1.8 24.8 10.4 28.1 11.7 6.8 2.7 4.9 1.9 11.8 4.5h.1q.1-.1 0-.1 0-.1-.1-.1M209.7 202.9q-1.9.5-3.7 1-1.9.5-3.7 1.1t-3.6 1.3q-1.8.6-3.6 1.4l-.1.1v.1l.1.1h.1c4.9-1.5 9.9-2.8 14.7-4.5.4-.1.2-.6-.2-.6" class="s4"/><path d="M204 201q-.2.3-.3.6-.2.3-.4.7-.1.3-.3.6-.1.3-.2.7-.2.2-.3.5-.1.2-.1.5l-.2.6q0 .2-.1.5c0 .2.2.2.3.1q.2-.2.4-.5.2-.2.3-.4.2-.3.3-.6.1-.2.2-.5.7-1.2 1.2-2.4c.3-.6-.5-.9-.8-.4" class="s4"/><path d="M204.6 196.5q.4-1.1.9-2.3c.3-.7.7-1.5 1-2.2 0-.2.2 0 .2.1-.3.7-.5 1.5-.7 2.2q-.4 1.2-.8 2.3-.7 2.1-1.6 4.2h.6q.3 0 .6-.1.2 0 .5-.1l.6-.2q.3-.2.5-.4l.5-.5q.2-.2.3-.5.2-.3.3-.6c.4-.8.8-1.7 1.3-2.5q.1-.3.3-.7l.4-.6q.1-.4.3-.7.1-.4.3-.8c0-.1.2 0 .2.1q-.3.8-.6 1.5-.2.8-.6 1.5-.3.8-.6 1.5l-.8 1.4c-.4.8-.8 1.5-1.6 1.8q-.3.1-.7.2h-.7q-.3.1-.6.1-.4-.1-.7-.1c-.1 0-.3 0-.2-.2q.1-.5.3-1.1.1-.6.3-1.1.2-.6.4-1.1.2-.6.4-1.1M202.6 205.8c1.7 3.6 3.2 7.2 4.8 10.8s3 7.1 4.4 10.7c2.9 7.2 5.4 14.6 7.7 22q1.6 5.5 3 11.1.4 1.4.7 2.8.4 1.4.6 2.8.3 1.5.5 2.9.3 1.4.4 2.9.2 1.4.2 2.8 0 1.5-.1 2.9t-.4 2.9q-.3 1.4-.7 2.8-.4 1.3-.8 2.7-.5 1.3-1 2.7l-1.2 2.6q-.5 1.3-1.2 2.6c-1 2.2-1.4 1.9-.9.8 1.4-3.1 5.2-12.5 4.9-20.4l-.2-2.8-.4-2.8q-.2-1.4-.5-2.8l-.6-2.8q-1.3-5.7-3-11.3c-2.1-7.3-4.6-14.5-7.2-21.7l-4.5-12c-1.5-4-3-7.6-4.7-12.1-.1-.1.1-.2.2-.1M167.3 193.9c.8-.3 2 .2 2.8.3q.4.1.8.1.4.1.8.1.5.1.9.1h.8q.4.1.8.1t.8-.1h.9q.4 0 .8-.1h.8l.8-.2q.4-.1.8-.3.3-.1.7-.3.6-.4 1.1-.9.6-.5 1.1-1 .5-.6 1-1.1l.8-1.2q.5-.7.9-1.3l.8-1.4q.4-.6.8-1.4l.6-1.4c0-.1.2 0 .2.1-.4 1.1-.6 2.2-1 3.3l-.4.8q-.1.3-.3.7t-.4.7q-.2.4-.5.8-.3.7-.8 1.3-.4.7-.9 1.3-.6.6-1.2 1.1-.5.5-1.2 1c-1.9 1.1-4.4 1-6.6.9q-.4-.1-.9-.1t-.9-.1q-.5-.1-.9-.1l-1-.2c-.8-.2-2.3-.4-2.9-1.1v-.1l-.1-.1.1-.1q0-.1.1-.1" class="s4"/><path d="M133.7 356q11.4-17.4 22.5-35 11-17.6 21.7-35.6c1.8-2.8 3.7-5.6 4.8-8.8 1.2-3.4.5-6.8-.5-10.1l-1.6-4.6q-.9-2.3-1.8-4.5-.8-2.3-1.8-4.5l-2-4.4c-2.7-5.9-5.5-11.7-8.4-17.6-2.8-5.8-5.8-11.6-8-17.6-2-5.9-2.8-11.9-1.2-17.9 1.5-6 4.9-11.3 8.4-16.3.9-1.4 1.9-2.7 2.8-4 .1-.1.2 0 .1.1-3.8 5.2-7.6 10.7-9.9 16.9q-.4 1.1-.7 2.3-.4 1.1-.6 2.3-.3 1.2-.4 2.4l-.2 2.4q0 1.2.1 2.5.1 1.2.3 2.4t.5 2.4q.2 1.2.6 2.4c1.9 6.1 4.9 11.8 7.6 17.5 2.8 5.7 5.8 11.7 8.5 17.6q1.1 2.2 2.1 4.4 1 2.3 1.9 4.6.9 2.2 1.8 4.5t1.7 4.6c.9 2.8 2 5.7 1.9 8.6 0 3.3-1.6 6.2-3.2 8.9-7 11.8-14.2 23.5-21.5 35.2-7.3 11.6-14.8 23.3-22.4 34.8l-2.8 4.3c-.2.2-.5 0-.3-.2" class="s4"/><path d="M217.5 137.5c4.3 9.5 26.2 22.6 36.4 24 7.4 1 29.8 1.3 37.5.2 9-1.4 2.1-25.7-3.2-25-14.6 1.7-27 3.6-30.9 3.6-4.8 0-30.5-8.3-33.6-9.5-7.6-2.8-8.6 1.3-6.2 6.7" class="s5"/><path d="M217.7 140c5.4 8.1 23.6 21.4 23.6 21.4l2.6-5.6 8.3-18.5s-16.7-5.3-27.7-7.7l-1-.2-1-.2q-.5 0-.9-.1-.5 0-1-.1c-7.1-.3-7.7 4-2.9 11" class="s8"/><path d="M217.7 140c5.4 8.1 23.6 21.4 23.6 21.4l2.6-5.6c-6.8-7.9-17.3-19.9-23.3-26.7-7.1-.4-7.7 3.9-2.9 10.9" class="s4"/><path d="M238.1 157.6c1.3-3.4 7.5-17.1 9.1-20 .1-.2.2-.2.1 0q-1 2.6-2 5.1-1.1 2.5-2.3 5-1.1 2.5-2.3 5t-2.5 4.9c0 .1-.2.1-.1 0" class="s4"/><path d="M285.5 136.9c8.9-1.2 19.9-3.1 29.2.8q.4.2.7.4.4.2.7.5.3.2.6.6.2.3.5.6c4.2 1.7 4.6 4.2 4.6 4.2 3.5 2.8 3.6 5.4 3.6 5.4s4.9 2 4.1 5.2c-.8 3.6-7.5 0-12.4.3-11.3.7-27 4.9-30.3 5.4z" class="s5"/><path d="M304.8 147.4q1.2-.1 2.4-.1 1.3-.1 2.5-.1 1.3 0 2.5.1 1.2 0 2.5.1l2.6.4q1.4.2 2.7.5 1.3.2 2.6.6 1.4.3 2.7.6 0 .1 0 0h.1v-.1h-.1q-2.4-1-5-1.6-2.5-.6-5.1-.9-2.6-.2-5.2-.2-2.6.1-5.2.6c-.2 0-.2.1 0 .1M303.4 140.7c3.2 0 8.9.1 18.4 3.4-1.4-.7-2.9-1.3-4.4-1.8q-2.2-.8-4.6-1.2-2.3-.5-4.7-.6t-4.7.1c-.2-.1-.2.1 0 .1M302.7 137c5.5.3 8.9 1.2 14.4 2.8-6-2.5-8.5-2.8-14.4-3-.2 0-.2.2 0 .2" class="s4"/><path d="M303.6 156.6c-1.5.7-1.1 1.5 1.6 2.1 2.8.6 14.1.8 13.7 4.8-.4 3.9-16.4 3.4-20.9 2-4.4-1.4-11.2-5.2-11.2-5.2 3.2-.5 10.6-2.5 16.8-3.7" class="s5"/><path d="M229.4 152.6q-.1 2.6-.5 5.2c0-.1 0-.1.1-.2.3-.9.7-1.8 1.1-2.7 0 0 .1 0 0 0q0 .4-.1.7-.1.4-.2.7-.1.4-.2.7-.2.4-.3.7-.3.6-.6 1.3-.1 1.1-.4 2.3c-.3 1.4-1.6 7.5-2 8.5 0 .2-.3.2-.3-.1.1-1.1 1.2-7.4 1.5-8.9q.1-1 .3-2.1.2-1 .5-2 .2-1.1.4-2.1l.6-2c0-.1.1 0 .1 0" class="s4"/><path d="M219 198.1c-2.7 1.4-6.1 3.5-21.6.4-1-.2-2-.4-2.9-.7-14.6-4.4-32-21.4-33-22.7 0 0 23.1-37.4 52.6-49.2 3.7-1.4 9.7 1.4 13 4.9 1.2 1.2 3.8 10.4 2.8 17.9-1 7.4-8.2 48-10.9 49.4" class="s8"/><path d="M216.9 148.3q.1.6 0 1.2 0 .6-.1 1.2 0 .6-.2 1.1-.1.6-.3 1.2-.1-.6-.1-1.2.1-.6.1-1.2.1-.6.3-1.1.1-.6.3-1.2M206.8 173.8q.1.3.1.6v.6q0 .3-.1.6v.6q-.1.3-.1.6-.1.2-.1.5l-.2.6-.2.6v-1.7999999999999998q0-.3.1-.6 0-.3.1-.6 0-.3.1-.6.1-.2.2-.5 0-.3.1-.6M189.7 154.5q.1.6.1 1.2-.1.6-.1 1.2-.1.6-.3 1.2-.1.6-.3 1.1-.1-.6 0-1.2 0-.6.1-1.2 0-.5.2-1.1.1-.6.3-1.2M223.5 172.5v1.7999999999999998q0 .3-.1.6 0 .3-.1.6 0 .3-.1.5-.1.3-.1.6l-.2.6q-.1-.3-.1-.6v-.6q0-.3.1-.6v-.6q.1-.3.1-.6l.2-.6q0-.2.1-.5zM201.5 151.2h1.7999999999999998q.3.1.6.1t.6.1.6.1q.3.1.5.2l.6.2H205q-.6 0-1.2-.1t-1.1-.2zM182.1 169.7q.6-.1 1.2-.1t1.2.1 1.1.3q.6.1 1.2.3h-1.2q-.6 0-1.2-.1t-1.1-.2q-.6-.1-1.2-.3M205 189.6q.6-.1 1.2 0 .6 0 1.2.1.6 0 1.1.2.6.1 1.2.3-.6.1-1.2.1-.6-.1-1.2-.1-.6-.1-1.2-.3-.5-.1-1.1-.3M176.1 182.3h1.2q.6 0 1.2.1l1.2.2q.5.2 1.1.4h-1.2q-.6 0-1.2-.1t-1.1-.2zM216.8 130.4h1.2q.5 0 1.1.1l1.2.2q.6.1 1.1.4h-1.2q-.5 0-1.1-.1t-1.2-.3q-.6-.1-1.1-.3M211.1 136.8l-.4.4-.4.4-.4.4q-.3.2-.5.4t-.5.3q-.2.2-.5.4-.2.1-.5.3-.2.1-.5.2l.4-.4.4-.4.4-.4q.3-.2.5-.4t.5-.3q.2-.2.5-.4.2-.1.5-.3.3-.1.5-.2M180.3 154.9l-.4.4q-.2.3-.4.5l-.4.4q-.3.1-.5.3t-.5.4q-.2.1-.5.3-.2.1-.5.3-.2.1-.5.2l.4-.4.4-.4q.2-.2.5-.4l.4-.4q.3-.2.5-.3.2-.2.5-.3.2-.2.5-.3.3-.2.5-.3M218.8 163.1l-.4.4q-.2.2-.4.5-.3.2-.5.3l-.4.4q-.3.2-.5.4-.3.1-.5.3-.3.1-.5.3-.3.1-.5.2.1-.2.3-.4.3-.2.5-.4l.4-.4q.2-.2.5-.4.2-.2.5-.3l.4-.4.6-.2q.2-.2.5-.3M193.9 178.8l-.4.4-.4.4q-.3.2-.5.4l-.4.4q-.3.2-.5.3-.3.2-.5.4-.3.1-.5.3l-.6.2.4-.4q.3-.2.5-.5.2-.2.4-.3.2-.2.5-.4.2-.2.5-.4.2-.1.4-.3.3-.1.6-.3.2-.1.5-.2M228.3 141.7l-.4.4-.4.4-.4.4q-.3.2-.5.4t-.5.3q-.2.2-.5.4-.2.1-.5.2-.2.2-.5.3l.4-.4q.2-.2.4-.5.2-.2.5-.3l.4-.4q.3-.2.5-.4.2-.1.5-.3.2-.1.5-.3.3-.1.5-.2M227.8 159.8l-.4-.4q-.3-.2-.5-.4l-.4-.4q-.1-.3-.3-.5t-.4-.5q-.1-.2-.3-.5-.1-.2-.3-.5-.1-.2-.2-.5l.4.4.4.4q.2.2.4.5l.4.4q.2.3.3.5.2.3.3.5.2.3.3.5.2.3.3.5M172.3 172.4l-.4-.4q-.3-.2-.5-.5l-.4-.4q-.1-.2-.3-.5l-.4-.4q-.1-.3-.3-.5-.1-.3-.3-.5l-.2-.6.4.4.4.4q.2.3.4.5t.4.5q.2.2.3.4.2.3.3.5.2.3.3.5.2.3.3.6M221.1 187.3q-.3-.2-.5-.4t-.4-.5l-.4-.4q-.2-.2-.4-.5-.1-.2-.3-.4-.2-.3-.3-.5-.2-.3-.3-.5-.2-.3-.3-.6.2.2.5.4l.4.4q.2.3.4.5t.3.5l.4.4q.1.3.3.5.2.3.3.5.1.3.3.5zM196.6 144.8l-.4-.4-.4-.4q-.2-.2-.4-.5l-.4-.4q-.2-.3-.3-.5-.2-.2-.4-.5-.1-.2-.3-.5-.1-.3-.2-.5l.4.4.4.4.4.4q.2.3.4.5t.3.5q.2.2.4.5.1.2.3.5.1.2.2.5M197.1 195.7q-.3-.2-.5-.4l-.4-.4-.4-.4q-.2-.3-.4-.5-.1-.2-.3-.5-.2-.2-.3-.5-.2-.2-.3-.5-.2-.2-.3-.5.2.2.5.4l.4.4q.2.2.4.5.2.2.3.4.2.3.4.5.1.2.3.5.1.2.3.5.1.3.3.5M201.2 165.7l-.4-.4q-.3-.2-.5-.4t-.3-.5l-.4-.4q-.2-.3-.4-.5-.1-.3-.3-.5-.1-.3-.3-.5-.1-.3-.2-.5l.4.4.4.4.4.4q.2.3.4.5t.3.5q.2.2.4.5.1.2.2.5.2.2.3.5" class="s2"/><path d="M221.7 140.8c-3.7-.8-7.3-8.5-7.7-13.8 0-.3 1.7-3.2 3.7-6.8 1.3-2.1 2.6-4.6 3.6-6.9.2-.5 1.4 1.1 1.4 1.1l2.7 2 8.9 6.8-1.6 2q-.7.9-1.4 2-.6 1-1.2 2.1l-1.2 2.2q0 .1-.1.2 0 .1-.1.3v.2q-.1.2-.1.3v.1c-.5 2-3.2 8.8-6.9 8.1z" class="s5"/><path d="M228.6 132.5v.2q-.2-.1-.4-.1l-.4-.2q-.2 0-.4-.1-.1-.1-.3-.2c-9.7-4.5-5.4-17.5-5.4-17.5l3.8 1.9 8.8 6.8q-.8.9-1.5 1.9l-1.4 2q-.7 1.1-1.3 2.1-.6 1.1-1.1 2.2-.1.1-.1.3-.1.1-.1.2-.1.1-.1.3-.1.1-.1.2M244.4 95.6s4.4 2.8 4.5 7.8c0 5-2 9.9-2.5 10.1-.4.1-2-17.9-2-17.9" class="s4"/><path d="M222.4 98.2c-2.6 5.2-2.5 21.8.8 26 4.9 6.2 14.1 8.4 19.8 2.2 5.4-5.9 4.8-27.4 1-31.5-5.7-5.9-17.6-4.5-21.6 3.3" class="s5"/><path d="m236.6 111.4-.1.1c0 1.2-.1 2.5-1.1 2.9 1.3-.2 1.4-1.9 1.2-3" class="s4"/><path d="M235.5 110.3c-1.8-.1-1.8 3.5-.2 3.6 1.7.1 1.8-3.5.2-3.6M242.7 111.4s.1 0 .1.1c0 1.1.1 2.4 1.1 2.8v.1c-1.2-.2-1.4-2-1.2-3" class="s4"/><path d="M243.8 110.2c1.8-.1 1.9 3.6.2 3.7s-1.8-3.6-.2-3.7M234.4 107.5q.2 0 .3-.1.2-.1.4-.1.2-.1.4-.1.1-.1.3-.2.2 0 .4-.1.2 0 .3-.1.2-.1.4-.3.1-.1.3-.2 0-.1.1-.3v-.2q-.1-.1-.1-.3l-.2-.2-.4-.2q-.2-.1-.5-.1-.2-.1-.5 0-.2 0-.5.1-.2.1-.5.2-.2.1-.4.3-.2.1-.4.3t-.3.4-.1.5q0 .2.2.4.1.2.3.3.3.1.5 0M245 109.1q-.2 0-.4-.1-.1 0-.3-.1-.2 0-.4-.1-.2 0-.3-.1-.2 0-.4-.1-.2 0-.4-.1t-.3-.2q-.2-.1-.3-.3-.1-.1-.1-.2-.1-.1-.1-.2 0-.2.1-.3 0-.1.1-.2.2-.2.5-.3.2-.1.4-.1.3-.1.5 0 .3 0 .5.1.3 0 .5.1.3.1.5.3.2.1.4.3t.3.4q.2.2.2.4 0 .3-.2.5-.1.2-.3.3-.3.1-.5 0M234 122.1c.3.3.5.7.9.7h.4q.1 0 .3-.1.1 0 .3-.1.1 0 .3-.1c.1 0 0 0 0 .1l-.3.3-.4.2q-.2.1-.4.1h-.4q-.2-.1-.3-.2-.2-.1-.3-.2t-.2-.3q0-.1-.1-.3l.1-.1zM240.5 117.3s.1 1.7 0 2.5q-.5-.1-1.1-.1h-1.2q-.5 0-1.1.1-.6 0-1.2.1c-.3.1-.3-.2.1-.4q.5-.2 1-.3.4-.2.9-.2.5-.1 1-.1t1 .1c.1-.2-.1-2.6 0-2.6q.3.1.5.1l.4.2q.2 0 .5.1l.4.2c0-3.5-.6-7-.5-10.5 0-.1.2-.1.2 0l.4 2.8.4 2.8q.1 1.4.1 2.9.1 1.4.1 2.8c0 .4-1.6-.3-1.9-.5" class="s4"/><path d="M238.3 119.2q-.2.4-.4.7-.2.4-.4.7l-.6.6q-.4.3-.7.5c-1.5.6-2-.8-.5-2q.3-.2.6-.3t.7-.2h.6q.4-.1.7 0" class="s4"/><path d="m236.7 121.4-.1.1h-.1q-.1.1-.2.1 0 .1-.1.1c-1.4.5-1.9-.6-.8-1.7.7.1 1.6.3 1.3 1.4" style="fill:#ff99ba"/><path d="M221.7 112.3c1.8.6 3.9-4.9 4.5-7 .5-1.8 1.1-7.7 1.2-8.1.1-.5 8 5.2 12.6 3.8 4.6-1.3 7.7-5.4 7.8-7.4 0-1.9-5.7-6.8-10.6-7.1-5-.2-11.7 6-11.7 6q.3-.3.6-.7.3-.3.5-.7.3-.4.6-.7.2-.4.5-.8c-.1-.2-3.3 1.1-3.9 3.3 0 0 .7-2.8.4-2.9-.2 0-2.7 2.4-2.1 4.3 0 0-2.9 2.5-3.2 5.2-.2 2.7.6 12.2 2.8 12.8" class="s4"/><path d="M243.3 100q-.5.3-1.1.5-.5.3-1 .4-.6.2-1.1.4-.6.1-1.2.3h-1.2q-.7 0-1.3-.1-.7-.1-1.3-.3l-1.2-.4q-.6-.3-1.1-.5l-1.2-.6q-.5-.4-1-.7l-1-.8c-1.2-1-2.2-2.1-3.4-3-.4-.2-.7.3-.5.6q.8 1 1.7 2 .9.9 2 1.7 1 .8 2.2 1.4t2.5 1q1.1.4 2.4.5 1.2 0 2.4-.2 1.2-.3 2.3-.8t2.1-1.4c.6-.5 0 0 0 0" class="s4"/><path d="M223.6 111.8s-2.8-5.7-5.4-4.8-1 8.9 1.6 10.4q.5.3 1.1.4t1.1 0q.6-.2 1.1-.5.4-.4.7-.9z" class="s5"/><path d="M218.7 109.3s-.1 0 0 .1c1.8 1 2.6 3 3 5q-.1-.4-.4-.6-.2-.2-.5-.4-.4-.1-.7 0-.4 0-.7.2v.1q.3-.1.6 0 .2 0 .5.2.2.1.4.3l.4.4.2.4q0 .2.1.4l.2.4q.1.3.1.5c.1.2.4.1.4-.1.4-2.5-1-6.3-3.6-6.9" class="s4"/><path d="M204.8 137.6c-2 11.3 10.3 49.5 18.2 56.6 11.7 10.6 33.4 17.6 41.2 19.8 3.4 1 12.9-23 9.4-24.6-7.4-3.4-30.4-10.6-32.6-12.4s-15.4-20.9-21.3-31.8c-7.8-14.8-13.9-13.4-14.9-7.6" class="s5"/><path d="M267.8 187.3c0-.1 10.2 2.6 16.8 4.6 3.7 1.1 9.8 3.6 12.1 5.7 3.5 3 16.1 18.2 12.5 21.3-3.3 2.8-12.4-11.5-12.4-11.5s10.5 13.6 6 16.3-12.8-14.9-12.8-14.9 10.5 14.3 5.4 16.3c-3.9 1.6-12.2-14-12.2-14s8.9 12.4 5 14.1c-4.4 2-13-11.9-13-11.9-10.7 2.8-17-.3-21.1-3-1-.6 13.7-23.1 13.7-23.1z" class="s5"/><path d="M293.4 202.4c1.4 1.5 2.7 3.1 3.8 4.8q1.8 2.5 3.3 5.2.5.8.9 1.7.5.9.9 1.8t.7 1.8q.4 1 .6 1.9c-1.7-4.4-5.7-10.4-6.8-12.1-1.2-1.7-2.3-3.4-3.4-5.1 0 0 0-.1.1 0zM287.3 206.4c2.3 1.8 6.9 8.3 8.7 12.7.1.2 0 .2-.1 0-1.4-2.1-7.1-10.5-8.6-12.6zM281.5 209q1 1.1 1.9 2.3 1 1.1 1.8 2.4t1.5 2.6q.6 1.3 1.2 2.7c.1.2-.1.2-.2 0-2.1-3.4-3.7-6-6.3-9.9-.1-.1 0-.2.1-.1" class="s4"/><path d="M216 138.4c-9.1-12.9-14.6-8.1-12.8 5.9 1.8 13.1 6.4 28.7 6.4 28.7l23-11.2s-10.8-15.1-16.6-23.4" class="s8"/><path d="M221.6 143.5q.1.2.2.5t.1.6l.2.6q.1.2.1.5.1.3.1.6v.6q.1.3.1.6v.6q-.2-.3-.3-.5-.1-.3-.1-.6l-.2-.6q0-.3-.1-.6 0-.3-.1-.6v-.5q-.1-.3-.1-.6t.1-.6M207.9 151.3q.6-.2 1.1-.4l1.2-.2 1.2-.2h1.1q-.2.1-.5.2l-.6.2q-.3.1-.5.1l-.6.2q-.3 0-.6.1h-1.7999999999999998M208.5 131.2q-.2.6-.5 1.1l-.6 1q-.4.5-.8.9-.4.5-.8.9.2-.6.5-1.1l.6-1q.4-.5.8-.9.4-.5.8-.9M228 157.3l-.2.6q-.2.3-.3.5-.2.3-.3.5-.2.3-.3.5-.2.3-.4.5t-.4.5l-.4.4-.4.4q.2-.5.5-1.1l.6-1q.4-.5.8-.9t.8-.9M212 165.2q-.3-.1-.5-.3l-.6-.2q-.2-.2-.5-.3-.2-.2-.5-.4-.2-.1-.4-.3-.3-.2-.5-.4l-.4-.4q-.3-.2-.4-.4.5.2 1 .5l1 .6 1 .8q.4.3.8.8" class="s2"/><path d="M219 142.3c1.2 1.7 2.5 3.3 3.8 5q-.5-1.3-.9-2.6h.1c.2.7.5 1.3.7 2l.4 1v.2l3 3.9q1.6 2.4 3.3 4.8c1.1 1.6 2.2 3.6 3.4 5.2.1.2-2 1-2.2 1.1-.3.1-.4-.1-.2-.1.2-.1 1.9-1.1 1.9-1.1-1.1-1.7-2.3-3.2-3.5-4.7l-3.4-4.8c-2.2-3.2-4.3-6.6-6.5-9.8zM203.8 153.6c.3.6.7 1.3 1 2l.4.9c-.6-2.5-1-5-1.6-7.5 1.1 4 2.1 8.1 3.1 12.1.9 3.9 2.1 7.8 2.6 11.8q.3-.1.5-.2l.6-.2q.3-.1.5-.2.3-.1.6-.1-.3.2-.6.3-.3.2-.6.3-.3.2-.6.3l-.6.2q-.5-1.5-.9-3t-.8-3.1q-.3-1.5-.7-3-.3-1.6-.6-3.1-.4-1.7-.7-3.4c-.3-.7-.6-1.3-.9-2-.3-.6-.6-1.4-.9-2.1.1 0 .2-.1.2 0" class="s4"/><path d="M209.9 169.2c3.2-1.8 16.6-8.8 19.5-10 .3-.1.4 0 .2.1q-2.4 1.4-4.8 2.7-2.5 1.3-4.9 2.6-2.5 1.2-4.9 2.4-2.5 1.2-5 2.3c-.1 0-.2-.1-.1-.1" class="s4"/></g><g id="freepik--Folder--inject-2"><path d="m576.3 432.1-304.7-.1 44.1-249.8h304.7L576.3 432z" class="s8"/><path d="M420 156.3h-99.7l-4.6 25.9h106.7z" class="s8"/><g style="opacity:.1"><path d="m576.3 432.1-304.7-.1 44.1-249.8h304.7L576.3 432z" class="s11"/><path d="M420 156.3h-99.7l-4.6 25.9h106.7z" class="s11"/></g><path d="m309.5 166.9-.4-2.2q-.1-1.1-.1-2.2t.1-2.2q.2-1.1.4-2.1.2 1 .4 2.1.1 1.1.1 2.2t-.1 2.2zM300.6 169.4q-.3-.4-.7-.8t-.7-.8q-.3-.5-.6-.9l-.6-1q-.3-.4-.5-.9-.3-.5-.5-1l-.4-1q-.2-.6-.3-1.1.4.4.7.8.4.4.7.9.3.4.6.9t.6.9q.3.5.5 1 .3.5.5 1l.4 1q.2.5.3 1M294.2 176.1q-1-.3-2-.8-1-.4-2-1-.9-.5-1.8-1.2-.9-.6-1.7-1.4l1 .4q.6.2 1.1.4t1 .5q.4.2.9.5.5.2 1 .5.4.3.9.7.4.3.8.7.4.3.8.7M292 185.1q-1.1.2-2.2.3-1.1.2-2.2.2-1 0-2.1-.2-1.1-.1-2.2-.3 1.1-.3 2.2-.4 1.1-.2 2.1-.2 1.1 0 2.2.2 1.1.1 2.2.4M294.6 193.9q-.4.4-.8.7-.4.4-.9.7-.4.4-.9.7-.4.3-.9.5-.5.3-1 .5-.5.3-1 .5l-1 .4-1 .4.8-.8q.4-.3.9-.7.4-.3.9-.6.4-.3.9-.6.5-.2 1-.5.4-.2.9-.5.5-.2 1.1-.4.5-.1 1-.3M301.2 200.3q-.3 1.1-.7 2.1-.5 1-1 1.9-.5 1-1.2 1.9l-1.4 1.6q.1-.5.3-1l.4-1q.3-.5.5-1 .3-.5.5-1 .3-.4.6-.9t.6-.9q.4-.5.7-.9.4-.4.7-.8M310.2 202.5q.1.5.2 1.1.1.5.2 1.1 0 .5.1 1.1v2.2q0 .5-.1 1.1l-.2 1q-.1.6-.2 1.1-.1-.5-.2-1.1l-.2-1q-.1-.6-.1-1.1v-2.2q.1-.6.1-1.1.1-.6.2-1.1.1-.6.2-1.1M319.1 200q.3.4.7.8t.7.9q.3.4.6.9.3.4.6.9t.5 1q.3.5.5 1l.4 1q.2.5.3 1-.7-.8-1.4-1.7-.7-.8-1.2-1.8l-1-2q-.4-1-.7-2M325.4 193.3q.6.2 1.1.3l1 .4q.5.3 1 .5.5.3 1 .5.4.3.9.6t.9.6q.4.4.9.7l.8.8q-.6-.2-1.1-.4l-1-.4q-.5-.2-1-.5-.5-.2-.9-.5l-1-.6q-.4-.3-.9-.6-.4-.3-.8-.7-.5-.3-.8-.7zM327.7 184.3q1-.2 2.1-.3 1.1-.2 2.2-.2t2.2.2q1.1.1 2.2.3-1.1.3-2.2.4t-2.2.1-2.2-.1-2.1-.4M325.1 175.5l.8-.8q.4-.3.9-.6.4-.4.9-.7.4-.3.9-.5l1-.6 1-.4 1-.4 1-.4q-.8.8-1.7 1.4-.8.7-1.8 1.2-1 .6-2 1-1 .5-2 .8M318.4 169.1l.4-1q.2-.6.4-1.1t.5-1q.2-.4.5-.9l.6-1q.3-.4.6-.9.3-.4.7-.8.3-.4.7-.8-.2.5-.3 1l-.4 1q-.3.5-.5 1-.3.5-.5 1-.3.4-.6.9t-.6.9q-.4.5-.7.9-.4.4-.7.8z" class="s4"/><path d="m575.9 432.1-305.4-.1-43.3-240.7h305.3L575.9 432z" class="s8"/><path d="M333 338.5c-7 0-12.7-5.7-12.7-12.7s5.7-12.7 12.7-12.7 12.7 5.7 12.7 12.7-5.7 12.7-12.7 12.7M433.3 338.5c-7 0-12.7-5.7-12.7-12.7s5.7-12.7 12.7-12.7 12.7 5.7 12.7 12.7-5.7 12.7-12.7 12.7M401.4 340.5l-.7-1.3c-.1-.2-6.6-12.3-19.8-12.3-12 0-15 11.4-15.1 11.9l-.4 1.5-2.9-.7.4-1.5c0-.1 3.6-14.2 18-14.2 15 0 22.1 13.3 22.4 13.9l.7 1.3z" class="s4"/></g><g id="freepik--Fly--inject-2"><path d="m555.7 324.8-.2-1q1-.2 1.9-.5l.3 1c-.7.2-1.3.4-2 .5M561.5 323.2l-.3-.9q1.9-.7 3.7-1.5l.4 1q-1.8.7-3.8 1.4m7.5-3.2-.5-.9c1.2-.6 2.4-1.2 3.5-2l.5.9q-1.7 1.1-3.5 2m6.9-4.2-.6-.8q1.6-1.2 3.1-2.5l.6.7c-1 .9-2 1.8-3.1 2.6m6.1-5.3-.8-.7q1.4-1.5 2.6-3l.8.6q-1.2 1.7-2.6 3.1m4.9-6.4-.8-.5q.2-.4.5-.8.2-.5.5-.9.2-.4.4-.9.2-.4.4-.9l1 .4q-.3.5-.5 1-.2.4-.5.9-.2.4-.4.9-.3.4-.6.9zm3.3-7.5-1-.2q.2-.5.3-1t.2-.9l.2-1q.1-.5.1-1l1 .2q0 .5-.1 1l-.2 1-.2 1q-.1.5-.3 1zm1.1-8h-1v-.3q0-1.8-.2-3.7l1-.1q.1.5.1 1 .1.5.1.9v1q0 .4.1.9zm-1.8-7.8q-.2-.5-.3-1l-.2-1q-.1-.4-.3-.9l-.2-1 1-.3c.4 1.3.7 2.7 1 4zm-2.4-7.6c-.5-1.2-1-2.4-1.7-3.6l.9-.4q1 1.8 1.7 3.6zm-3.5-7.1q-.9-1.6-2-3.4l.9-.5c.7 1.2 1.4 2.3 2 3.4zm-4.2-6.8q-1.1-1.6-2.3-3.3l.9-.5q1.1 1.6 2.2 3.3zm-4.5-6.6q-1.1-1.7-2.2-3.3l.8-.6q1.1 1.7 2.2 3.3zm-4.4-6.7q-1.1-1.6-2.2-3.4l.9-.5q1 1.7 2.1 3.4zm-4.2-6.9q-1-1.8-1.9-3.5l.9-.5q.9 1.7 1.9 3.5zm-3.6-7.2q-.7-1.8-1.4-3.7l1-.3q.6 1.8 1.4 3.7zm-2.6-7.7q-.5-1.9-.8-4l1-.1q.3 1.9.8 3.8zm-1.4-8q-.1-1.8-.1-3.7v-.3h1v.3c0 1.2 0 2.4.1 3.6zm1-8-1-.1c0-.2.1-.5.1-.8q.2-1.6.5-3.2l1 .2q-.3 1.5-.5 3.1.15.45 0 .9zm1.4-7.8-1-.3q.5-2 1.3-3.8l.9.3q-.2.5-.3 1-.2.4-.3.9-.2.5-.3 1-.1.4-.3.9m49.9-5.8c-.6 0-1.2-.1-1.7-.2q-1.2-.1-2.4-.4l.2-1q1.2.3 2.3.4l1.6.2zm4.1-.3-.2-1q.5-.1.9-.3.5-.1 1-.3l.8-.4q.5-.2.9-.4l.5.8q-.4.3-.9.5-.5.3-.9.5-.5.2-1 .3-.5.2-1 .3zm-51.1-1.2-.9-.5q.3-.4.5-.9.3-.4.5-.8.3-.5.6-.9t.5-.8l.9.5q-.3.4-.6.9-.2.4-.5.8-.2.4-.5.9l-.4.8zm39 0q-.5-.2-1-.3-.5-.2-.9-.4l-1-.4q-.5-.2-.9-.4l.4-.9q.4.2.9.4.4.2.9.4.5.1.9.3.5.2 1 .3zm19-3.1-.9-.6q.3-.4.5-.8l.4-.8q.1-.5.2-.9l.2-1 1 .1q-.1.5-.2 1.1l-.2 1q-.2.5-.5 1-.2.5-.5.9m-26.4-.1q-.4-.3-.9-.6-.4-.2-.8-.5t-.9-.6l-.8-.6.6-.8.8.6.8.6q.4.2.9.5.4.3.8.5zm-27.1-3.1-.7-.7q.3-.4.7-.7.3-.4.7-.8l.7-.7.8-.6.6.7q-.4.3-.7.7-.4.3-.7.7-.4.3-.7.7zm20.6-1.7q-.4-.3-.7-.7-.4-.3-.7-.7l-.7-.7q-.4-.4-.7-.8l.7-.7q.4.4.7.8l.7.7q.3.4.7.7l.7.7zm32.5-2.7q-.2-.5-.4-.9-.3-.4-.6-.7l-.6-.8q-.3-.3-.7-.6l.7-.8.7.7q.4.4.7.8.3.5.6.9t.5.9zm-47.2-.8-.5-.8.8-.6q.4-.2.9-.5.4-.3.8-.5.5-.3.9-.5l.5.9q-.4.2-.9.5-.4.2-.8.5-.4.2-.8.5t-.8.5zm9.3-2.6q-.6-.8-1.1-1.6l-1.3.5-.4-.9 1.2-.5q-.3-.4-.6-.9l.9-.5q.3.6.6 1 .9-.3 1.7-.5l.3 1c-.5.1-1 .3-1.4.4.3.5.6 1 1 1.5zm32.3-1.8q-.4-.1-.8-.3-.3-.2-.7-.3-.4-.2-.8-.3-.3-.1-.7-.3l-.7-.2.3-1 .7.2q.4.2.8.3.4.2.8.3.4.2.7.3l.8.4zm-27.2-1.8-.2-1q2-.4 4-.7l.2 1q-2 .3-3.9.7zm19.7-.5q-1.9-.3-4-.5l.1-1q2.1.2 4 .5zm-11.8-.6-.1-1q1.8-.1 3.6-.1h.5v1h-.5c-1.2.1-2.3.1-3.5.2zm-16.9-2.4c-.5-1.2-1-2.5-1.4-3.8l1-.3q.6 1.9 1.4 3.7zm-2.6-7.7q-.4-1.9-.7-4l1-.1q.3 1.9.7 3.9zm-1.1-8q-.1-1.4-.1-2.8v-1.3h1v1.3c0 .9 0 1.8.1 2.7zm1.2-8-1-.1q.2-2 .5-4l1 .1c-.2 1.4-.4 2.7-.6 4zm1.4-7.8-1-.3q.5-1.9 1.1-3.8l1 .3q-.7 1.9-1.1 3.8m2.4-7.6-.9-.3c.4-1.3 1-2.5 1.6-3.7l.9.4q-.9 1.8-1.6 3.7zm3.4-7.1-.9-.5q1-1.8 2.2-3.4l.8.5q-1.2 1.7-2.1 3.4m4.5-6.5-.8-.7q1.2-1.5 2.7-3l.7.7q-1.4 1.5-2.7 3zm5.5-5.8-.7-.7c1-.9 2-1.8 3.1-2.6l.6.8q-1.6 1.2-3 2.6zm6.2-5-.6-.8q1.6-1.1 3.4-2.2l.5.8c-1.2.8-2.2 1.5-3.4 2.2zm6.8-4.1-.4-.9q1.7-.9 3.6-1.8l.4.9c-1.3.6-2.4 1.2-3.6 1.8m7.2-3.3-.3-.9c1.2-.5 2.5-1 3.7-1.4l.4 1q-1.9.6-3.8 1.3M622.6 98.6l-.2-1c1.2-.3 2-.4 2-.4l.2 1s-.8.1-2 .4" class="s4"/><path d="M640.3 92.2c-2.5-7.9-19.6-5.1-16.3 5.2 3.4 10.4 18.9 2.7 16.3-5.2" class="s4"/><path d="M614.7 89c.2-3.5 5-6.1 11.8-4.9s13.2 5.8 13.2 5.8-6.7 4.1-13.6 4.9c-6.9.7-11.5-2.3-11.4-5.8" class="s0"/><path d="M639.7 89.9c-3.5 0-7-.1-10.6-.2q-5.3-.2-10.6-.6c3.6 0 7.1.1 10.6.2q5.3.2 10.6.6" class="s4"/><path d="M621.6 85.9q.7.4 1.5.8l1.4.8q.7.5 1.4.9.7.5 1.3 1-.3-.1-.7-.3l-.8-.4q-.3-.2-.7-.4-.3-.2-.7-.5-.3-.2-.7-.4-.3-.2-.7-.5-.3-.2-.7-.5-.3-.2-.6-.5M630.9 89.6l-1.4 1q-.7.5-1.5 1-.7.5-1.5.9-.7.5-1.5.8l1.4-1 1.4-1q.8-.5 1.5-.9zM631.9 87.6q.4.2.7.4.4.2.7.5l.6.6.6.6-.4-.2-.4-.2q-.1-.1-.3-.2l-.3-.3q-.2-.1-.4-.3l-.3-.3-.3-.3q-.1-.1-.2-.3" class="s4"/><path d="M621.2 109.5c2.2 2.8 7.6 2.1 12.4-2.9 4.8-4.9 7.4-12.4 7.4-12.4s-7.9.6-13.9 4-8 8.6-5.9 11.3" class="s0"/><path d="M641 94.2c-2.9 2-5.7 4.2-8.5 6.4q-4.2 3.2-8.2 6.6c2.8-2 5.6-4.2 8.4-6.3 2.8-2.2 5.6-4.4 8.3-6.7" class="s4"/><path d="M628.6 108q.2-.4.4-.7.2-.4.3-.8.2-.4.4-.7.2-.4.3-.8.2-.4.3-.8.2-.4.3-.8t.3-.8l.2-.8-.4.8q-.2.3-.4.7-.1.4-.3.8t-.3.7q-.2.4-.3.8-.2.4-.3.8-.2.4-.3.8zM634 99.6h-3.5l-1.8.2q-.8.1-1.7.2h.9q.4.1.8.1.5 0 .9-.1h1.8q.4-.1.9-.1.4-.1.8-.1.5-.1.9-.2M635.9 100.6q.1-.2.2-.3l.2-.4q.1-.2.1-.4.1-.2.1-.4.1-.2.1-.4.1-.2.1-.4.1-.3.1-.5v-.4q-.2.4-.3.8-.2.4-.3.8l-.2.8q-.1.4-.1.8" class="s4"/><path d="M640.3 92.2c-1.1.3-2.4 0-3.2-.9-.8-1-.9-2.3-.4-3.4.6-1 1.7-1.7 2.9-1.6s2.3.9 2.7 2.1q.1.6.1 1.2-.1.5-.3 1.1-.3.5-.8.9-.4.4-1 .6" class="s12"/><path d="M642.2 97.9c-1.2.3-2.5 0-3.2-.9-.8-1-1-2.3-.4-3.3.5-1.1 1.7-1.8 2.9-1.7s2.2.9 2.6 2.1q.2.6.1 1.2 0 .5-.3 1.1-.3.5-.7.9-.5.4-1 .6" class="s12"/></g><g id="freepik--speech-bubble--inject-2"><path d="M314.3 95.3c-.5 4.6-2.2 9-5 12.6-2.9 3.7-6.6 6.5-10.9 8.1-4.4 1.7-9.1 2.1-13.6 1.2s-8.7-3-12.1-6.1l-12.5 1.8 6.2-10.8c-2.9-7.1-2.3-15.1 1.5-21.8 3.8-6.6 10.5-11.1 18.1-12.2s15.3 1.4 20.8 6.7 8.3 12.9 7.5 20.5" class="s2"/><path fill-rule="evenodd" d="M314.3 95.3q-.2 1.7-.6 3.4t-1 3.3-1.5 3.1q-.8 1.5-1.9 2.8-.5.7-1.1 1.4-.5.6-1.1 1.3-.7.6-1.3 1.1-.7.6-1.4 1.1l-1.4 1q-.7.4-1.5.9-.7.4-1.5.8l-1.6.6-1.6.6q-.8.3-1.7.5-.8.2-1.7.3-.8.1-1.7.2-.4.1-.9.1h-3.4q-.5-.1-.9-.1-.4-.1-.8-.1-.5-.1-.9-.2-1.7-.3-3.4-.8-1.6-.6-3.2-1.3-1.6-.8-3-1.8-1.4-.9-2.6-2l-12.3 1.8-.9.2.5-.8 6.1-10.6q-1.1-2.6-1.5-5.3-.5-2.9-.3-5.8t1.1-5.6q.8-2.8 2.3-5.3.7-1.2 1.6-2.4.8-1.1 1.8-2.2 1-1 2.1-2 1.1-.9 2.3-1.7 2.4-1.6 5.1-2.6t5.5-1.4q2.9-.4 5.7-.2 2.9.3 5.6 1.2 1.4.4 2.6 1.1 1.3.6 2.5 1.3 1.3.7 2.4 1.6t2.1 1.9q2.1 2 3.6 4.4t2.5 5.1q1 2.6 1.3 5.5.3 2.8 0 5.6m-41.7 16.2.2-.1-.3-.1q0 .1.1.2m-6.6-9.4q0 .1.1.2v-.4zm48.3-6.8c.4-3.7 0-7.5-1.3-11.1-1.3-3.5-3.4-6.7-6.2-9.3-2.7-2.6-6-4.6-9.6-5.7s-7.4-1.4-11.1-.9q-1.4.2-2.8.6-1.3.4-2.6.9t-2.6 1.2q-1.2.6-2.3 1.4-1.2.8-2.2 1.7-1.1.9-2 2-1 1-1.8 2.1t-1.5 2.3-1.2 2.5q-.6 1.3-1 2.6-.4 1.4-.6 2.7-.3 1.4-.4 2.8t0 2.8.3 2.8q.2 1.3.6 2.7.4 1.3.9 2.6l.1.2-.1.3-5.9 9.9 11.6-1.6h.2l.1.1q1.3 1.2 2.6 2.1 1.4 1 3 1.8 1.5.8 3.1 1.3 1.6.6 3.3.9l.8.2q.4 0 .8.1.5 0 .9.1h.8q.5.1.9.1h1.7q.4 0 .8-.1.9 0 1.7-.2.9-.1 1.7-.3.9-.2 1.7-.4t1.6-.5 1.6-.7q.8-.3 1.5-.7.8-.4 1.5-.9l1.4-1 1.4-1 1.2-1.2 1.2-1.2q.6-.7 1.1-1.3 1.1-1.4 1.9-2.9.9-1.5 1.5-3.1.7-1.6 1.1-3.3.4-1.6.6-3.4M261 112.4l-.9.2.5.6z" class="s4"/><path d="M277.3 104.3q0-.5.2-.9.2-.5.5-.9.4-.3.8-.5.5-.2 1-.2c.7 0 1.3.3 1.8.7.5.5.7 1.2.7 1.8 0 .7-.2 1.4-.7 1.9-.5.4-1.1.7-1.8.7q-.5 0-1-.2-.4-.2-.8-.5-.3-.4-.5-.9-.2-.4-.2-1m1-5.9-.5-19.8h4l-.6 19.8zM286.9 104.3q-.1-.5.1-.9.2-.5.5-.9.4-.3.8-.5.5-.2 1-.2c.7 0 1.3.3 1.8.7.5.5.7 1.2.7 1.8 0 .7-.2 1.4-.7 1.9-.5.4-1.1.7-1.8.7q-.5 0-1-.2-.4-.2-.8-.5-.3-.4-.5-.9-.2-.4-.1-1m1-5.9-.6-19.8h4l-.6 19.8zM296.4 104.3q-.1-.5.1-.9.2-.5.5-.9.4-.3.8-.5.5-.2 1-.2c.7 0 1.3.3 1.8.7.5.5.8 1.2.8 1.8 0 .7-.3 1.4-.8 1.9-.5.4-1.1.7-1.8.7q-.5 0-1-.2-.4-.2-.8-.5-.3-.4-.5-.9-.2-.4-.1-1m1-5.9-.6-19.8h4l-.6 19.8z" class="s8"/></g></svg>